<?xml version="1.0" encoding="UTF-8" standalone="no"?>
<!-- Created with Inkscape (http://www.inkscape.org/) -->

<svg
   width="96.708504mm"
   height="115.58298mm"
   viewBox="0 0 96.708504 115.58298"
   version="1.1"
   id="svg5"
   inkscape:version="1.2.2 (732a01da63, 2022-12-09)"
   sodipodi:docname="logo.svg"
   xmlns:inkscape="http://www.inkscape.org/namespaces/inkscape"
   xmlns:sodipodi="http://sodipodi.sourceforge.net/DTD/sodipodi-0.dtd"
   xmlns="http://www.w3.org/2000/svg"
   xmlns:svg="http://www.w3.org/2000/svg">
  <sodipodi:namedview
     id="namedview7"
     pagecolor="#ffffff"
     bordercolor="#000000"
     borderopacity="0.25"
     inkscape:showpageshadow="2"
     inkscape:pageopacity="0.0"
     inkscape:pagecheckerboard="0"
     inkscape:deskcolor="#d1d1d1"
     inkscape:document-units="mm"
     showgrid="false"
     inkscape:lockguides="true"
     inkscape:zoom="0.86772068"
     inkscape:cx="166.52824"
     inkscape:cy="225.87914"
     inkscape:window-width="2100"
     inkscape:window-height="1541"
     inkscape:window-x="-11"
     inkscape:window-y="1119"
     inkscape:window-maximized="1"
     inkscape:current-layer="layer1" />
  <defs
     id="defs2" />
  <g
     inkscape:label="Ebene 1"
     inkscape:groupmode="layer"
     id="layer1"
     transform="translate(-60.147771,-94.73353)">
    <g
       id="g22647">
      <path
         style="fill:none;fill-opacity:1;stroke-width:0.264583"
         d="M 56.406446,240.88327 37.912529,140.09142 47.313603,134.23501 V 134.0809"
         id="path14494" />
      <text
         xml:space="preserve"
         style="font-style:normal;font-variant:normal;font-weight:bold;font-stretch:normal;font-size:19.7556px;font-family:Verdana;-inkscape-font-specification:'Verdana Bold';fill:#1362ad;fill-opacity:1;stroke-width:0.264583"
         x="78.900154"
         y="163.97177"
         id="text275"><tspan
           sodipodi:role="line"
           id="tspan273"
           style="font-style:normal;font-variant:normal;font-weight:bold;font-stretch:normal;font-size:19.7556px;font-family:Arial;-inkscape-font-specification:'Arial Bold';fill:#1362ad;fill-opacity:1;stroke-width:0.264583"
           x="78.900154"
           y="163.97177">sim</tspan></text>
      <text
         xml:space="preserve"
         style="font-style:normal;font-variant:normal;font-weight:bold;font-stretch:normal;font-size:19.7556px;font-family:Arial;-inkscape-font-specification:'Arial Bold';fill:#91c84b;fill-opacity:1;stroke-width:0.264583"
         x="77.694168"
         y="182.76924"
         id="text3546"><tspan
           sodipodi:role="line"
           id="tspan3544"
           style="font-size:19.7556px;fill:#91c84b;fill-opacity:1;stroke-width:0.264583"
           x="77.694168"
           y="182.76924">place</tspan></text>
      <rect
         style="fill:#91c84b;fill-opacity:1;stroke-width:0.264583"
         id="rect6038"
         width="7.229795"
         height="7.229795"
         x="126.5737"
         y="149.55833" />
      <rect
         style="fill:#1362c8;fill-opacity:1;stroke-width:0.264583"
         id="rect6038-5"
         width="7.229795"
         height="7.229795"
         x="135.90016"
         y="149.48602" />
      <rect
         style="fill:#d08f3d;fill-opacity:1;stroke-width:0.264583"
         id="rect6038-0"
         width="7.229795"
         height="7.229795"
         x="117.12574"
         y="149.55833" />
      <text
         xml:space="preserve"
         style="font-style:normal;font-variant:normal;font-weight:bold;font-stretch:normal;font-size:19.7556px;font-family:Arial;-inkscape-font-specification:'Arial Bold';fill:#d08f3d;fill-opacity:1;stroke-width:0.264583"
         x="85.842598"
         y="128.68683"
         id="text11986"><tspan
           sodipodi:role="line"
           id="tspan11984"
           style="fill:#d08f3d;stroke-width:0.264583"
           x="85.842598"
           y="128.68683">U</tspan><tspan
           sodipodi:role="line"
           style="fill:#d08f3d;stroke-width:0.264583"
           x="85.842598"
           y="153.38133"
           id="tspan11988" /></text>
      <text
         xml:space="preserve"
         style="font-style:normal;font-variant:normal;font-weight:bold;font-stretch:normal;font-size:19.7556px;font-family:Arial;-inkscape-font-specification:'Arial Bold';fill:#d08f3d;fill-opacity:1;stroke-width:0.264583"
         x="89.454086"
         y="146.10193"
         id="text12042"><tspan
           sodipodi:role="line"
           id="tspan12040"
           style="fill:#d08f3d;stroke-width:0.264583"
           x="89.454086"
           y="146.10193">t</tspan></text>
      <path
         style="fill:none;fill-opacity:1;stroke-width:0.264583"
         d="m 60.875809,124.52571 47.930071,-26.816182 47.3136,26.662062"
         id="path14492" />
      <path
         style="fill:none;fill-opacity:1;stroke:#000000;stroke-width:3.565;stroke-dasharray:none;stroke-opacity:1"
         d="M 61.800506,123.29278 108.96,96.784831 155.96537,123.90924 v 0"
         id="path15222" />
      <path
         style="fill:none;fill-opacity:1;stroke:#000000;stroke-width:3.565;stroke-dasharray:none;stroke-opacity:1"
         d="m 61.021179,181.75726 47.159491,26.50795 47.00537,-27.12441 v 0"
         id="path15222-8" />
      <path
         d="m 107.66365,114.5512 c -0.56868,-0.46384 -1.37678,-0.40742 -1.89158,0.12542 l -2.39442,2.50719 c -0.50881,0.53278 -0.56268,1.37895 -0.1257,1.98068 l 4.78881,6.51872 c 0.26937,0.3698 0.69438,0.58918 1.13735,0.58918 h 3.23843 l 6.52476,6.8321 c -0.87994,1.81772 -0.5986,4.09925 0.856,5.61611 l 6.70434,7.02015 c 0.74825,0.78349 1.96341,0.78349 2.71167,0 l 3.83106,-4.01151 c 0.74825,-0.78349 0.74825,-2.0559 0,-2.83939 l -6.70435,-7.02015 c -1.44861,-1.51686 -3.62753,-1.81771 -5.36347,-0.89632 l -6.52477,-6.83211 v -3.3847 c 0,-0.4701 -0.2095,-0.90886 -0.56267,-1.19094 z m -3.5138,24.51408 c -0.76022,0.79604 -1.19122,1.8804 -1.19122,3.00863 0,2.3505 1.81975,4.25596 4.06451,4.25596 1.07749,0 2.11306,-0.45128 2.87329,-1.24732 l 7.05153,-7.38368 c -0.46692,-1.31001 -0.53874,-2.73285 -0.21549,-4.08046 l -3.69339,-3.86735 z m 29.4572,-15.80159 c 0,-0.65813 -0.0659,-1.29746 -0.19156,-1.91173 -0.14366,-0.70201 -0.96374,-0.88378 -1.44862,-0.37609 l -3.82505,4.00525 c -0.17958,0.18803 -0.42501,0.2946 -0.67644,0.2946 h -3.43596 c -0.52677,0 -0.95776,-0.45129 -0.95776,-1.00287 v -3.6041 c 0,-0.26326 0.10173,-0.52025 0.28133,-0.7083 l 3.82507,-4.00521 c 0.48487,-0.50772 0.31127,-1.36644 -0.35916,-1.51688 -0.59263,-0.13161 -1.20318,-0.20056 -1.83172,-0.20056 -4.75888,0 -8.61987,4.04284 -8.61987,9.02589 v 0.0501 l 5.10608,5.34659 c 2.15496,-0.57039 4.5374,0.0314 6.22546,1.79892 l 0.9398,0.98407 c 2.93315,-1.44164 4.9684,-4.56309 4.9684,-8.17973 z m -27.29625,18.0518 a 1.4366469,1.504319 0 1 1 2.87329,0 1.4366469,1.504319 0 1 1 -2.87329,0 z"
         id="path17090"
         style="stroke-width:0.0612537;fill:#333333" />
    </g>
  </g>
</svg>
