<?xml version="1.0" encoding="UTF-8" standalone="no"?>
<!-- Created with Inkscape (http://www.inkscape.org/) -->

<svg
   width="96.708504mm"
   height="115.58298mm"
   viewBox="0 0 96.708504 115.58298"
   version="1.1"
   id="svg5"
   inkscape:version="1.2.2 (732a01da63, 2022-12-09)"
   sodipodi:docname="logo.svg"
   xmlns:inkscape="http://www.inkscape.org/namespaces/inkscape"
   xmlns:sodipodi="http://sodipodi.sourceforge.net/DTD/sodipodi-0.dtd"
   xmlns="http://www.w3.org/2000/svg"
   xmlns:svg="http://www.w3.org/2000/svg">
  <sodipodi:namedview
     id="namedview7"
     pagecolor="#ffffff"
     bordercolor="#000000"
     borderopacity="0.25"
     inkscape:showpageshadow="2"
     inkscape:pageopacity="0.0"
     inkscape:pagecheckerboard="0"
     inkscape:deskcolor="#d1d1d1"
     inkscape:document-units="mm"
     showgrid="false"
     inkscape:lockguides="true"
     inkscape:zoom="4.040586"
     inkscape:cx="205.29201"
     inkscape:cy="230.78336"
     inkscape:window-width="3840"
     inkscape:window-height="2126"
     inkscape:window-x="2089"
     inkscape:window-y="-11"
     inkscape:window-maximized="1"
     inkscape:current-layer="layer1" />
  <defs
     id="defs2" />
  <g
     inkscape:label="Ebene 1"
     inkscape:groupmode="layer"
     id="layer1"
     transform="translate(-60.147771,-94.73353)">
    <path
       style="fill:none;fill-opacity:1;stroke-width:0.264583"
       d="M 56.406446,240.88327 37.912529,140.09142 47.313603,134.23501 V 134.0809"
       id="path14494" />
    <text
       xml:space="preserve"
       style="font-style:normal;font-variant:normal;font-weight:bold;font-stretch:normal;font-size:18.6278px;font-family:Verdana;-inkscape-font-specification:'Verdana Bold';fill:#1362ad;fill-opacity:1;stroke-width:0.249479"
       x="78.010857"
       y="163.34268"
       id="text275"><tspan
         sodipodi:role="line"
         id="tspan273"
         style="font-style:normal;font-variant:normal;font-weight:bold;font-stretch:normal;font-size:18.6278px;font-family:Arial;-inkscape-font-specification:'Arial Bold';fill:#1362ad;fill-opacity:1;stroke-width:0.249479"
         x="78.010857"
         y="163.34268">sim</tspan></text>
    <text
       xml:space="preserve"
       style="font-style:normal;font-variant:normal;font-weight:bold;font-stretch:normal;font-size:18.6278px;font-family:Arial;-inkscape-font-specification:'Arial Bold';fill:#91c84b;fill-opacity:1;stroke-width:0.249479"
       x="76.873718"
       y="180.76711"
       id="text3546"><tspan
         sodipodi:role="line"
         id="tspan3544"
         style="font-size:18.6278px;fill:#91c84b;fill-opacity:1;stroke-width:0.249479"
         x="76.873718"
         y="180.76711">place</tspan></text>
    <rect
       style="fill:#91c84b;fill-opacity:1;stroke-width:0.249479"
       id="rect6038"
       width="6.8170652"
       height="6.8170652"
       x="122.96277"
       y="149.85252" />
    <rect
       style="fill:#1362c8;fill-opacity:1;stroke-width:0.249479"
       id="rect6038-5"
       width="6.8170652"
       height="6.8170652"
       x="131.75677"
       y="149.78352" />
    <rect
       style="fill:#d08f3d;fill-opacity:1;stroke-width:0.249479"
       id="rect6038-0"
       width="6.8170652"
       height="6.8170652"
       x="114.05423"
       y="149.85252" />
    <text
       xml:space="preserve"
       style="font-style:normal;font-variant:normal;font-weight:bold;font-stretch:normal;font-size:18.6278px;font-family:Arial;-inkscape-font-specification:'Arial Bold';fill:#d08f3d;fill-opacity:1;stroke-width:0.249479"
       x="84.256714"
       y="129.77211"
       id="text11986"><tspan
         sodipodi:role="line"
         id="tspan11984"
         style="fill:#d08f3d;stroke-width:0.249479"
         x="84.256714"
         y="129.77211">U</tspan><tspan
         sodipodi:role="line"
         style="fill:#d08f3d;stroke-width:0.249479"
         x="84.256714"
         y="153.05685"
         id="tspan11988" /></text>
    <text
       xml:space="preserve"
       style="font-style:normal;font-variant:normal;font-weight:bold;font-stretch:normal;font-size:18.6278px;font-family:Arial;-inkscape-font-specification:'Arial Bold';fill:#d08f3d;fill-opacity:1;stroke-width:0.249479"
       x="88.061806"
       y="146.19304"
       id="text12042"><tspan
         sodipodi:role="line"
         id="tspan12040"
         style="fill:#d08f3d;stroke-width:0.249479"
         x="88.061806"
         y="146.19304">t</tspan></text>
    <path
       style="fill:none;fill-opacity:1;stroke-width:0.264583"
       d="m 60.875809,124.52571 47.930071,-26.816182 47.3136,26.662062"
       id="path14492" />
    <path
       style="fill:none;fill-opacity:1;stroke:#000000;stroke-width:3.565;stroke-dasharray:none;stroke-opacity:1"
       d="m 61.400179,123.29278 47.159491,-26.507949 47.00537,27.124409 v 0"
       id="path15222" />
    <path
       style="fill:none;fill-opacity:1;stroke:#000000;stroke-width:3.565;stroke-dasharray:none;stroke-opacity:1"
       d="m 61.421179,181.75726 47.159491,26.50795 47.00537,-27.12441 v 0"
       id="path15222-8" />
    <path
       d="m 117.64348,118.31354 c -0.46369,-0.3782 -1.12259,-0.33221 -1.54236,0.10226 l -1.95234,2.04429 c -0.41487,0.43441 -0.45878,1.12435 -0.10247,1.615 l 3.90466,5.31519 c 0.21963,0.30152 0.56617,0.48038 0.92736,0.48038 h 2.64054 l 5.32011,5.57073 c -0.71748,1.48212 -0.48808,3.3424 0.69795,4.57922 l 5.46656,5.72404 c 0.61009,0.63883 1.6009,0.63883 2.21101,0 l 3.12374,-3.27088 c 0.6101,-0.63884 0.6101,-1.67632 0,-2.31516 l -5.46654,-5.72404 c -1.18117,-1.2368 -2.95779,-1.48211 -4.37324,-0.73083 l -5.32012,-5.57073 v -2.75979 c 0,-0.38331 -0.17082,-0.74106 -0.45879,-0.97106 z m -2.86507,19.98813 c -0.61985,0.64906 -0.97128,1.53322 -0.97128,2.45315 0,1.91654 1.48377,3.4702 3.31409,3.4702 0.87856,0 1.72293,-0.36796 2.3428,-1.01704 l 5.74963,-6.02044 c -0.38071,-1.06817 -0.43927,-2.2283 -0.17571,-3.32711 l -3.01148,-3.15333 z m 24.01862,-12.8842 c 0,-0.53663 -0.0537,-1.05791 -0.1562,-1.55878 -0.11714,-0.5724 -0.7858,-0.72061 -1.18116,-0.30665 l -3.11885,3.26578 c -0.14642,0.15332 -0.34653,0.24021 -0.55155,0.24021 h -2.80158 c -0.42952,0 -0.78094,-0.36798 -0.78094,-0.81772 v -2.93868 c 0,-0.21466 0.0829,-0.4242 0.22939,-0.57753 l 3.11886,-3.26575 c 0.39534,-0.41397 0.2538,-1.11416 -0.29285,-1.23682 -0.48321,-0.10731 -0.98104,-0.16352 -1.49354,-0.16352 -3.88026,0 -7.0284,3.29641 -7.0284,7.35946 v 0.0408 l 4.16335,4.35945 c 1.75711,-0.46508 3.69968,0.0256 5.07608,1.4668 l 0.76628,0.80239 c 2.39161,-1.17548 4.05111,-3.72064 4.05111,-6.66953 z m -22.25663,14.71895 a 1.1714033,1.2265813 0 1 1 2.3428,0 1.1714033,1.2265813 0 1 1 -2.3428,0 z"
       id="path17090"
       style="fill:#d08f3d;stroke:none;stroke-width:0;stroke-dasharray:none;stroke-opacity:1" />
  </g>
</svg>
